<svg xmlns="http://www.w3.org/2000/svg" viewBox="0 0 900 650" role="img" aria-labelledby="title desc"><title id="title">Heritage packaging design system</title><desc id="desc">A premium abstract packaging and identity illustration in cocoa, ivory, terracotta, and gold.</desc><defs><linearGradient id="bg" x1="0" y1="0" x2="1" y2="1"><stop stop-color="#e8dfb7"/><stop offset="0.52" stop-color="#b8865f"/><stop offset="1" stop-color="#3e281b"/></linearGradient><radialGradient id="glow" cx="72%" cy="22%" r="48%"><stop stop-color="#d8c83a" stop-opacity="0.64"/><stop offset="1" stop-color="#d8c83a" stop-opacity="0"/></radialGradient></defs><rect width="900" height="650" fill="url(#bg)"/><rect width="900" height="650" fill="url(#glow)"/><g transform="translate(250 190)"><path d="M48 72 236 8l180 67-190 73z" fill="#f1e7c5" opacity="0.92"/><path d="M48 72v238l178 85V148z" fill="#b8865f" opacity="0.92"/><path d="M226 148v247l190-98V75z" fill="#3e281b" opacity="0.9"/><path d="M88 120h92M88 158h102M88 196h74" stroke="#3e281b" stroke-width="9" stroke-linecap="round" opacity="0.34"/><path d="M270 172h90M270 214h66M270 256h92" stroke="#d8c83a" stroke-width="8" stroke-linecap="round" opacity="0.58"/><circle cx="142" cy="264" r="38" fill="none" stroke="#d8c83a" stroke-width="9" opacity="0.72"/><path d="M120 264h44M142 242v44" stroke="#d8c83a" stroke-width="7" stroke-linecap="round" opacity="0.72"/></g><path d="M110 480c120 54 235 63 345 26 116-39 218-38 335 2" fill="none" stroke="#e8dfb7" stroke-width="9" stroke-linecap="round" opacity="0.42"/><g fill="#3e281b" opacity="0.18"><circle cx="132" cy="126" r="48"/><circle cx="760" cy="475" r="72"/></g></svg>
