<svg xmlns="http://www.w3.org/2000/svg" viewBox="0 0 900 650" role="img" aria-labelledby="title desc"><title id="title">Ghanaian culture and craft</title><desc id="desc">A warm Ghana-inspired pattern illustration with woven forms, cocoa leaves, and craft marks.</desc><defs><linearGradient id="bg" x1="0" y1="0" x2="1" y2="1"><stop stop-color="#2b1b12"/><stop offset="0.5" stop-color="#3e281b"/><stop offset="1" stop-color="#b8865f"/></linearGradient><pattern id="kente" width="96" height="96" patternUnits="userSpaceOnUse"><path d="M0 0h96v96H0z" fill="none"/><path d="M0 24h96M0 72h96M24 0v96M72 0v96" stroke="#d8c83a" stroke-width="5" opacity="0.32"/><path d="M0 48h96M48 0v96" stroke="#e8dfb7" stroke-width="2" opacity="0.24"/></pattern></defs><rect width="900" height="650" fill="url(#bg)"/><rect width="900" height="650" fill="url(#kente)" opacity="0.8"/><circle cx="450" cy="318" r="190" fill="#e8dfb7" opacity="0.12"/><path d="M248 405c107-150 248-195 421-134" fill="none" stroke="#d8c83a" stroke-width="11" stroke-linecap="round" opacity="0.72"/><path d="M300 250c66-84 157-106 274-66" fill="none" stroke="#e8dfb7" stroke-width="8" stroke-linecap="round" opacity="0.54"/><g transform="translate(568 258)"><ellipse cx="0" cy="0" rx="82" ry="34" fill="#49652f" transform="rotate(-24)"/><ellipse cx="-118" cy="32" rx="78" ry="30" fill="#6f8b43" transform="rotate(26)"/></g><g fill="#d8c83a" opacity="0.7"><circle cx="176" cy="151" r="10"/><circle cx="230" cy="515" r="7"/><circle cx="735" cy="132" r="8"/><circle cx="710" cy="510" r="11"/></g></svg>
